HIERARCHY
ROOT hip
{
  OFFSET 0 0 0
  CHANNELS 6 Xposition Yposition Zposition Zrotation Yrotation Xrotation
  JOINT abdomen
  {
    OFFSET 0 20.6881 -0.73152
    CHANNELS 3 Zrotation Xrotation Yrotation
    JOINT chest
    {
      OFFSET 0 11.7043 -0.48768
      CHANNELS 3 Zrotation Xrotation Yrotation
      JOINT neck
      {
        OFFSET 0 22.1894 -2.19456
        CHANNELS 3 Zrotation Xrotation Yrotation
        JOINT head
        {
          OFFSET -0.24384 7.07133 1.2192
          CHANNELS 3 Zrotation Xrotation Yrotation
          JOINT leftEye
          {
            OFFSET 4.14528 8.04674 8.04672
            CHANNELS 3 Zrotation Xrotation Yrotation
            End Site
            {
              OFFSET 1 0 0
            }
          }
          JOINT rightEye
          {
            OFFSET -3.6576 8.04674 8.04672
            CHANNELS 3 Zrotation Xrotation Yrotation
            End Site
            {
              OFFSET 1 0 0
            }
          }
        }
      }
      JOINT rCollar
      {
        OFFSET -2.68224 19.2634 -4.8768
        CHANNELS 3 Zrotation Xrotation Yrotation
        JOINT rShldr
        {
          OFFSET -8.77824 -1.95073 1.46304
          CHANNELS 3 Zrotation Xrotation Yrotation
          JOINT rForeArm
          {
            OFFSET -28.1742 -1.7115 0.48768
            CHANNELS 3 Zrotation Xrotation Yrotation
            JOINT rHand
            {
              OFFSET -22.5879 0.773209 7.07136
              CHANNELS 3 Zrotation Xrotation Yrotation
              JOINT rThumb1
              {
                OFFSET -1.2192 -0.487915 3.41376
                CHANNELS 3 Zrotation Xrotation Yrotation
                JOINT rThumb2
                {
                  OFFSET -3.37035 -0.52449 3.41376
                  CHANNELS 3 Zrotation Xrotation Yrotation
                  End Site
                  {
                    OFFSET -1.78271 -1.18214 1.43049
                  }
                }
              }
              JOINT rIndex1
              {
                OFFSET -7.75947 0.938293 5.60832
                CHANNELS 3 Zrotation Xrotation Yrotation
                JOINT rIndex2
                {
                  OFFSET -2.54057 -0.884171 1.56538
                  CHANNELS 3 Zrotation Xrotation Yrotation
                  End Site
                  {
                    OFFSET -1.62519 -0.234802 1.16502
                  }
                }
              }
              JOINT rMid1
              {
                OFFSET -8.24714 1.18213 3.41376
                CHANNELS 3 Zrotation Xrotation Yrotation
                JOINT rMid2
                {
                  OFFSET -3.10165 -0.590103 1.0647
                  CHANNELS 3 Zrotation Xrotation Yrotation
                  End Site
                  {
                    OFFSET -2.48547 -0.328903 0.83742
                  }
                }
              }
              JOINT rRing1
              {
                OFFSET -8.82822 0.546677 1.51678
                CHANNELS 3 Zrotation Xrotation Yrotation
                JOINT rRing2
                {
                  OFFSET -2.60934 -0.819778 -0.0198488
                  CHANNELS 3 Zrotation Xrotation Yrotation
                  End Site
                  {
                    OFFSET -2.33842 -0.294052 0.168128
                  }
                }
              }
              JOINT rPinky1
              {
                OFFSET -8.27202 -0.0477905 -0.4584
                CHANNELS 3 Zrotation Xrotation Yrotation
                JOINT rPinky2
                {
                  OFFSET -1.82734 -0.647385 -0.700984
                  CHANNELS 3 Zrotation Xrotation Yrotation
                  End Site
                  {
                    OFFSET -1.69225 -0.51767 -0.607171
                  }
                }
              }
            }
          }
        }
      }
      JOINT lCollar
      {
        OFFSET 2.68224 19.2634 -4.8768
        CHANNELS 3 Zrotation Xrotation Yrotation
        JOINT lShldr
        {
          OFFSET 8.77824 -1.95073 1.46304
          CHANNELS 3 Zrotation Xrotation Yrotation
          JOINT lForeArm
          {
            OFFSET 28.1742 -1.7115 0.48768
            CHANNELS 3 Zrotation Xrotation Yrotation
            JOINT lHand
            {
              OFFSET 22.5879 0.773209 7.07136
              CHANNELS 3 Zrotation Xrotation Yrotation
              JOINT lThumb1
              {
                OFFSET 1.2192 -0.487915 3.41376
                CHANNELS 3 Zrotation Xrotation Yrotation
                JOINT lThumb2
                {
                  OFFSET 3.37035 -0.52449 3.41376
                  CHANNELS 3 Zrotation Xrotation Yrotation
                  End Site
                  {
                    OFFSET 1.78271 -1.18214 1.43049
                  }
                }
              }
              JOINT lIndex1
              {
                OFFSET 7.75947 0.938293 5.60832
                CHANNELS 3 Zrotation Xrotation Yrotation
                JOINT lIndex2
                {
                  OFFSET 2.54057 -0.884171 1.56538
                  CHANNELS 3 Zrotation Xrotation Yrotation
                  End Site
                  {
                    OFFSET 1.62519 -0.234802 1.16502
                  }
                }
              }
              JOINT lMid1
              {
                OFFSET 8.24714 1.18213 3.41376
                CHANNELS 3 Zrotation Xrotation Yrotation
                JOINT lMid2
                {
                  OFFSET 3.10165 -0.590103 1.0647
                  CHANNELS 3 Zrotation Xrotation Yrotation
                  End Site
                  {
                    OFFSET 2.48547 -0.328903 0.83742
                  }
                }
              }
              JOINT lRing1
              {
                OFFSET 8.82822 0.546677 1.51678
                CHANNELS 3 Zrotation Xrotation Yrotation
                JOINT lRing2
                {
                  OFFSET 2.60934 -0.819778 -0.0198488
                  CHANNELS 3 Zrotation Xrotation Yrotation
                  End Site
                  {
                    OFFSET 2.33842 -0.294052 0.168128
                  }
                }
              }
              JOINT lPinky1
              {
                OFFSET 8.27202 -0.0477905 -0.4584
                CHANNELS 3 Zrotation Xrotation Yrotation
                JOINT lPinky2
                {
                  OFFSET 1.82734 -0.647385 -0.700984
                  CHANNELS 3 Zrotation Xrotation Yrotation
                  End Site
                  {
                    OFFSET 1.69225 -0.51767 -0.607171
                  }
                }
              }
            }
          }
        }
      }
    }
  }
  JOINT rButtock
  {
    OFFSET -8.77824 4.35084 1.2192
    CHANNELS 3 Zrotation Xrotation Yrotation
    JOINT rThigh
    {
      OFFSET 0 -1.70687 -2.19456
      CHANNELS 3 Zrotation Xrotation Yrotation
      JOINT rShin
      {
        OFFSET 0 -36.8199 0.73152
        CHANNELS 3 Zrotation Xrotation Yrotation
        JOINT rFoot
        {
          OFFSET 0.73152 -45.1104 -5.12064
          CHANNELS 3 Zrotation Xrotation Yrotation
          End Site
          {
            OFFSET -1.1221 -3.69964 12.103
          }
        }
      }
    }
  }
  JOINT lButtock
  {
    OFFSET 8.77824 4.35084 1.2192
    CHANNELS 3 Zrotation Xrotation Yrotation
    JOINT lThigh
    {
      OFFSET 0 -1.70687 -2.19456
      CHANNELS 3 Zrotation Xrotation Yrotation
      JOINT lShin
      {
        OFFSET 0 -36.8199 0.73152
        CHANNELS 3 Zrotation Xrotation Yrotation
        JOINT lFoot
        {
          OFFSET -0.73152 -45.1104 -5.12064
          CHANNELS 3 Zrotation Xrotation Yrotation
          End Site
          {
            OFFSET 1.1221 -3.69964 12.103
          }
        }
      }
    }
  }
}
MOTION
Frames:	5
Frame Time:	0.00833333
0.548289 85.0491 -192.043 0.0 0.0 0.0 0.323381 -0.00164675 0.00924291 0.0892418 -0.00254733 0.015461 4.08164e-15 -1.59028e-15 -8.07563e-17 1.22066e-14 3.18055e-15 -2.62458e-16 -0.0 0.0 0.0 -0.0 0.0 0.0 2.03628e-15 -7.76503e-19 9.93923e-17 4.49119e-14 -1.11816e-16 0.0 7.39429e-13 -2.17272e-13 -9.54166e-15 8.44002e-12 2.2895e-13 -1.81292e-13 1.99131e-11 2.50572e-14 -3.84847e-13 3.43917e-11 4.13472e-14 -6.72687e-13 1.99206e-11 2.70347e-14 -3.91208e-13 7.73091 5.47488 0.417314 1.99146e-11 2.5842e-14 -3.91208e-13 2.90554 0.965183 0.102902 1.99269e-11 2.5842e-14 -3.89618e-13 10.2786 0.731801 0.0259123 1.99107e-11 2.46493e-14 -3.81667e-13 2.22167 -0.733487 -0.20892 2.03894e-15 -1.16475e-18 -1.98785e-16 4.01965e-14 7.45443e-17 -1.39149e-15 7.35901e-13 2.25223e-13 -3.18055e-14 8.44703e-12 -2.03953e-13 -1.39944e-13 1.99215e-11 4.39816e-14 -3.94389e-13 3.43997e-11 7.31528e-14 -6.77458e-13 1.99135e-11 4.69132e-14 -3.91208e-13 -7.73091 5.47488 -0.417314 1.99221e-11 4.44284e-14 -3.94389e-13 -2.90554 0.965183 -0.102902 1.99106e-11 4.49253e-14 -3.89618e-13 -10.2786 0.731801 -0.0259123 1.99268e-11 4.45278e-14 -3.97569e-13 -2.22167 -0.733487 0.20892 -2.03217e-16 0.0 -3.88251e-19 0.739972 -3.92204 -0.0606396 -0.00350543 1.55189 -0.0277762 -0.496418 2.36987 0.104815 2.03217e-16 0.0 3.88251e-19 -0.247579 -2.6651 0.029579 0.00709477 -0.724823 0.0619345 0.492169 3.38959 -0.125002
1.61415 79.8755 -192.867 2.1196 2.3717 4.6885 -3.15679 5.33338 -1.37396 0.270345 -1.84517 -0.597854 -0.235664 3.65414 0.13939 0.989192 -13.7954 0.713904 -0.0 0.0 0.0 -0.0 0.0 0.0 -5.83419e-14 -4.63148e-14 -7.41948e-15 21.2251 10.7226 -5.59138 -16.735 -14.1583 14.912 -2.09795e-05 0.00426972 0.000600198 3.45087e-10 -1.99763e-10 -2.77625e-10 5.96311e-10 -3.45903e-10 -4.7909e-10 3.45095e-10 -1.99761e-10 -2.77633e-10 7.73091 5.47488 0.417314 3.45087e-10 -1.99762e-10 -2.77631e-10 2.90554 0.965183 0.102902 3.451e-10 -1.99761e-10 -2.77629e-10 10.2786 0.731801 0.0259123 3.45084e-10 -1.99761e-10 -2.77621e-10 2.22167 -0.733487 -0.20892 -5.83259e-14 -4.63202e-14 -7.66098e-15 -18.2373 10.9569 -7.83083 28.4553 -25.7654 -13.089 -0.12579 -7.88775 1.0711 -2.29491e-10 5.46326e-10 1.12754e-11 -3.97254e-10 9.38889e-10 1.3478e-11 -2.29499e-10 5.46324e-10 1.12849e-11 -7.73091 5.47488 -0.417314 -2.2949e-10 5.46328e-10 1.12773e-11 -2.90554 0.965183 -0.102902 -2.295e-10 5.46329e-10 1.12795e-11 -10.2786 0.731801 -0.0259123 -2.29487e-10 5.46328e-10 1.12713e-11 -2.22167 -0.733487 0.20892 -2.03217e-16 0.0 -3.88251e-19 -1.25668 -17.3966 -0.825677 -0.0471433 28.4823 0.351796 -0.561636 8.18319 -1.07235 2.03217e-16 0.0 3.88251e-19 -3.02703 -4.1871 -0.0908144 -0.158909 11.1143 -0.232458 0.61462 -0.493115 -0.12652
1.64409 80.4098 -189.703 2.0094 3.1488 4.6935 -6.57728 10.9958 -2.84734 0.401253 -3.78854 -1.24523 -0.507119 7.53891 0.277871 2.4789 -28.4193 1.61074 -0.0 0.0 0.0 -0.0 0.0 0.0 -1.25929e-13 -9.8592e-14 -1.54369e-14 46.0657 21.7366 -12.1104 -26.0516 -25.8053 33.4165 -5.73577e-05 -0.00293995 -0.000412841 7.08404e-10 -4.23601e-10 -5.89794e-10 1.22413e-09 -7.33494e-10 -1.01778e-09 7.08412e-10 -4.23601e-10 -5.89804e-10 7.73091 5.47488 0.417314 7.08403e-10 -4.236e-10 -5.89798e-10 2.90554 0.965183 0.102902 7.08417e-10 -4.23599e-10 -5.89798e-10 10.2786 0.731801 0.0259123 7.08401e-10 -4.23598e-10 -5.89789e-10 2.22167 -0.733487 -0.20892 -1.25895e-13 -9.8603e-14 -1.5617e-14 -34.064 21.8336 -17.0881 40.7271 -47.6927 -37.5738 0.0737271 -16.179 2.26783 -5.08412e-10 1.16124e-09 2.7941e-11 -8.8006e-10 1.99581e-09 3.55296e-11 -5.0842e-10 1.16123e-09 2.79573e-11 -7.73091 5.47488 -0.417314 -5.0841e-10 1.16124e-09 2.79449e-11 -2.90554 0.965183 -0.102902 -5.08419e-10 1.16124e-09 2.79445e-11 -10.2786 0.731801 -0.0259123 -5.08409e-10 1.16124e-09 2.7936e-11 -2.22167 -0.733487 0.20892 -2.03217e-16 0.0 -3.88251e-19 -3.87039 -31.6185 -1.87027 -0.781125 57.1374 1.23097 -0.35903 14.4157 -2.36663 2.03217e-16 0.0 3.88251e-19 -5.98889 -5.94575 -0.196984 -0.191157 23.7944 -0.58345 0.746747 -4.87271 -0.101273
1.5921 81.0258 -186.522 1.7754 3.1278 4.6607 -9.31878 15.9655 -4.28821 0.513761 -5.52792 -1.83208 -0.761174 10.9622 0.425078 4.28883 -41.3561 2.77143 -0.0 0.0 0.0 -0.0 0.0 0.0 -1.79098e-13 -1.38943e-13 -2.24572e-14 70.719 30.8408 -19.2935 -27.9454 -30.2772 52.6394 -6.3207e-05 0.0128092 0.0018006 9.95434e-10 -5.99338e-10 -8.32106e-10 1.72015e-09 -1.03779e-09 -1.43593e-09 9.95442e-10 -5.99338e-10 -8.32118e-10 7.73091 5.47488 0.417314 9.95432e-10 -5.99337e-10 -8.3211e-10 2.90554 0.965183 0.102902 9.95447e-10 -5.99335e-10 -8.32109e-10 10.2786 0.731801 0.0259123 9.95432e-10 -5.99333e-10 -8.321e-10 2.22167 -0.733487 -0.20892 -1.79056e-13 -1.38958e-13 -2.25854e-14 -44.8413 30.2275 -26.9597 31.1372 -53.2567 -75.026 0.575647 -23.6286 3.4745 -7.28316e-10 1.63889e-09 3.46149e-11 -1.26056e-09 2.81652e-09 4.17889e-11 -7.28323e-10 1.63888e-09 3.46371e-11 -7.73091 5.47488 -0.417314 -7.28314e-10 1.63889e-09 3.46206e-11 -2.90554 0.965183 -0.102902 -7.28322e-10 1.6389e-09 3.46178e-11 -10.2786 0.731801 -0.0259123 -7.28314e-10 1.6389e-09 3.46092e-11 -2.22167 -0.733487 0.20892 -2.03217e-16 0.0 -3.88251e-19 -6.70848 -44.308 -3.13483 -6.90433 82.2819 7.34051 0.0631636 19.7779 -3.60677 2.03217e-16 0.0 3.88251e-19 -8.60527 -7.23101 -0.333462 -0.0622836 34.789 -0.984059 0.858706 -8.25852 -0.131342
1.54098 81.6945 -183.305 1.7154 2.686 4.6602 -10.9177 19.2365 -5.50965 0.662894 -6.75962 -2.26053 -0.939213 13.2318 0.588525 5.93563 -50.1002 4.0451 -0.0 0.0 0.0 -0.0 0.0 0.0 -1.96221e-13 -1.49478e-13 -2.6985e-14 89.723 36.3618 -25.7383 -27.7066 -29.0819 65.7855 -9.06064e-06 0.0859553 0.0120802 1.09175e-09 -6.54819e-10 -8.99776e-10 1.88664e-09 -1.13386e-09 -1.55269e-09 1.09176e-09 -6.54818e-10 -8.99788e-10 7.73091 5.47488 0.417314 1.09175e-09 -6.54817e-10 -8.99779e-10 2.90554 0.965183 0.102902 1.09176e-09 -6.54816e-10 -8.99778e-10 10.2786 0.731801 0.0259123 1.09175e-09 -6.54814e-10 -8.99769e-10 2.22167 -0.733487 -0.20892 -1.96193e-13 -1.49494e-13 -2.70844e-14 -50.3932 34.9586 -34.9777 25.7713 -46.7019 -97.0566 1.15659 -29.0059 4.46914 -8.00679e-10 1.7734e-09 1.63099e-11 -1.3853e-09 3.04669e-09 8.56762e-12 -8.00685e-10 1.77338e-09 1.63353e-11 -7.73091 5.47488 -0.417314 -8.00677e-10 1.7734e-09 1.63162e-11 -2.90554 0.965183 -0.102902 -8.00684e-10 1.7734e-09 1.63123e-11 -10.2786 0.731801 -0.0259123 -8.00678e-10 1.77341e-09 1.63035e-11 -2.22167 -0.733487 0.20892 -2.03217e-16 0.0 -3.88251e-19 -8.87184 -53.2086 -4.18775 -171.992 81.0256 172.35 0.465624 22.9949 -4.53396 2.03217e-16 0.0 3.88251e-19 -10.3444 -7.33284 -0.543977 0.133576 41.5736 -1.34187 0.908563 -9.15979 -0.299576
